<?xml version="1.0" standalone="no"?>
<!DOCTYPE svg PUBLIC "-//W3C//DTD SVG 20010904//EN"
 "http://www.w3.org/TR/2001/REC-SVG-20010904/DTD/svg10.dtd">
<svg version="1.0" xmlns="http://www.w3.org/2000/svg"
 width="555.000000pt" height="232.000000pt" viewBox="0 0 555.000000 232.000000"
 preserveAspectRatio="xMidYMid meet">

<g transform="translate(0.000000,232.000000) scale(0.100000,-0.100000)"
fill="#000000" stroke="none">
<path d="M1123 1799 c-71 -27 -155 -106 -189 -176 -39 -80 -45 -194 -13 -278
18 -50 39 -76 118 -155 129 -128 173 -150 300 -150 113 0 155 16 226 82 47 42
105 118 105 136 0 5 -23 21 -51 36 -33 19 -49 33 -45 42 3 9 -10 24 -36 41
-30 21 -37 29 -27 36 8 4 47 26 87 48 39 22 72 43 72 48 0 42 -198 243 -279
283 -66 33 -195 36 -268 7z m352 -145 c51 -24 88 -57 120 -106 l17 -27 -138
-69 -138 -69 137 -72 c152 -81 150 -76 80 -143 -67 -64 -116 -83 -213 -83 -70
0 -93 4 -132 24 -99 50 -160 144 -166 253 -6 91 18 158 77 221 98 105 229 131
356 71z"/>
<path d="M1310 1347 c0 -7 47 -38 105 -67 58 -30 105 -58 105 -62 0 -4 -15
-19 -34 -34 -30 -24 -39 -54 -16 -54 13 0 100 81 100 93 0 12 -228 137 -249
137 -6 0 -11 -6 -11 -13z"/>
<path d="M2653 1738 c-13 -16 -313 -603 -313 -611 0 -4 23 -9 51 -13 52 -7 54
-9 35 -55 -6 -14 12 -17 166 -21 95 -3 237 -3 316 0 139 5 142 5 136 26 -4 12
-71 150 -151 308 -119 239 -149 290 -173 303 -17 9 -30 21 -30 28 0 6 -7 20
-14 30 -10 13 -16 14 -23 5z m215 -403 c67 -135 122 -247 122 -250 0 -3 -115
-5 -255 -5 l-255 0 125 250 c69 138 128 250 133 250 4 0 62 -110 130 -245z"/>
<path d="M2700 1295 c-18 -22 -1 -50 31 -50 20 0 24 5 24 30 0 23 -5 31 -21
33 -11 2 -27 -4 -34 -13z"/>
<path d="M2870 1215 c0 -3 9 -24 20 -45 l20 -40 -40 0 c-29 0 -40 -4 -40 -15
0 -12 13 -15 60 -15 33 0 60 2 60 5 0 18 -57 115 -67 115 -7 0 -13 -2 -13 -5z"/>
<path d="M3670 1415 l0 -305 40 0 40 0 0 -40 0 -40 140 0 140 0 0 40 c0 29 4
40 15 40 11 0 15 -11 15 -40 l0 -40 135 0 135 0 0 268 c0 300 -4 338 -31 345
-14 4 -19 14 -19 41 l0 36 -149 0 -150 0 -3 -37 c-4 -52 -28 -56 -28 -4 l0 41
-140 0 -140 0 0 -305z m320 85 l0 -100 55 0 55 0 0 100 0 100 95 0 95 0 0
-260 0 -260 -95 0 -95 0 0 95 0 95 -55 0 -55 0 0 -95 0 -95 -100 0 -100 0 0
253 c0 140 3 257 7 260 3 4 48 7 100 7 l93 0 0 -100z"/>
<path d="M3947 1214 c-4 -4 -7 -27 -7 -51 l0 -43 -56 0 c-40 0 -55 -3 -51 -12
2 -9 25 -13 68 -13 l64 0 3 54 c3 51 -6 79 -21 65z"/>
<path d="M4250 1170 l0 -50 -56 0 c-40 0 -55 -3 -52 -12 3 -8 28 -14 66 -16
l62 -3 0 66 c0 37 -4 65 -10 65 -5 0 -10 -22 -10 -50z"/>
<path d="M1863 1685 c-58 -29 -101 -74 -135 -138 -32 -60 -33 -203 -1 -262 26
-48 174 -195 223 -220 50 -26 145 -31 214 -11 72 21 149 89 182 161 31 66 33
179 4 244 -24 53 -149 183 -210 219 -37 22 -59 27 -135 30 -81 3 -95 1 -142
-23z m320 -113 c197 -87 200 -369 5 -466 -171 -85 -370 41 -370 235 0 184 194
307 365 231z"/>
<path d="M2050 1355 c-20 -25 -8 -50 25 -50 21 0 31 5 33 18 4 21 -14 47 -33
47 -7 0 -18 -7 -25 -15z"/>
<path d="M2290 1320 c0 -83 -115 -199 -197 -200 -14 0 -23 -6 -23 -15 0 -37
118 3 175 60 57 57 97 175 60 175 -8 0 -15 -9 -15 -20z"/>
<path d="M3133 1690 c-101 -45 -173 -161 -173 -277 0 -101 14 -128 124 -239
88 -88 108 -104 155 -118 141 -42 261 2 353 128 15 21 28 43 28 47 0 5 -18 18
-40 29 -22 11 -40 27 -40 34 0 8 -14 26 -32 40 -18 14 -30 27 -28 29 3 2 35
20 73 41 l67 37 -16 32 c-26 50 -176 194 -225 217 -60 27 -187 27 -246 0z
m311 -115 c42 -20 116 -89 116 -108 0 -7 -49 -37 -110 -67 -60 -30 -110 -58
-110 -62 0 -4 50 -33 110 -63 61 -30 110 -59 110 -65 0 -21 -64 -80 -112 -104
-170 -85 -367 38 -368 229 0 188 198 319 364 240z"/>
<path d="M3310 1308 c0 -8 21 -24 48 -37 26 -12 67 -34 91 -48 l45 -26 -31
-27 c-20 -18 -28 -32 -23 -40 6 -9 21 0 56 32 l48 46 -104 53 c-121 62 -130
65 -130 47z"/>
</g>
</svg>
